<?xml version="1.0" standalone="no"?>
<!DOCTYPE svg PUBLIC "-//W3C//DTD SVG 20010904//EN"
 "http://www.w3.org/TR/2001/REC-SVG-20010904/DTD/svg10.dtd">
<svg version="1.0" xmlns="http://www.w3.org/2000/svg"
 width="1024.000000pt" height="1024.000000pt" viewBox="0 0 1024.000000 1024.000000"
 preserveAspectRatio="xMidYMid meet">

<g transform="translate(0.000000,1024.000000) scale(0.100000,-0.100000)"
fill="#000000" stroke="none">
<path d="M5118 7411 c-5 -85 -8 -183 -8 -218 0 -52 -3 -65 -20 -75 -19 -12
-20 -24 -20 -204 l0 -191 -25 -13 -25 -13 0 -259 0 -258 -35 -17 -35 -17 0
-238 0 -239 -30 -10 -30 -11 0 -146 0 -147 -76 -40 c-42 -22 -113 -64 -157
-92 -44 -29 -82 -53 -84 -53 -2 0 -70 61 -151 135 -145 133 -292 252 -425 346
l-69 48 -119 -59 c-65 -33 -119 -64 -119 -68 0 -4 48 -31 108 -61 324 -161
640 -379 885 -611 140 -133 224 -232 390 -460 10 -14 -8 25 -39 85 -68 130
-143 249 -230 362 l-63 82 52 29 c102 57 203 82 333 82 159 0 320 -56 394
-139 l34 -38 111 95 c60 51 111 97 113 101 1 5 -10 14 -27 20 -16 7 -80 46
-143 87 -62 41 -148 91 -190 111 l-78 38 0 172 0 172 -40 12 -40 12 0 302 0
301 -35 17 -35 17 0 282 c0 272 -1 284 -20 296 -19 11 -20 23 -20 175 0 92 -4
167 -10 173 -5 5 -11 70 -12 144 l-3 135 -7 -154z m38 -1814 c18 -22 24 -40
25 -80 0 -84 10 -141 25 -153 10 -8 14 -38 14 -118 l0 -106 -100 0 -100 0 0
109 c0 88 3 110 15 115 12 4 15 25 15 99 0 88 1 94 30 127 23 28 29 45 30 81
0 65 14 71 18 8 2 -38 10 -60 28 -82z m115 -259 c12 -10 14 -32 11 -105 -4
-83 -6 -93 -23 -93 -17 0 -19 8 -19 105 0 58 4 105 8 105 5 0 15 -6 23 -12z
m-271 -98 c0 -91 -2 -100 -19 -100 -17 0 -20 11 -26 89 -8 97 -4 111 26 111
18 0 19 -8 19 -100z m-70 -10 c0 -83 -1 -90 -20 -90 -18 0 -20 7 -20 84 0 81
4 92 33 95 4 1 7 -39 7 -89z m404 84 c13 -5 16 -23 16 -90 0 -77 -2 -84 -20
-84 -19 0 -20 7 -20 90 0 50 2 90 4 90 2 0 11 -3 20 -6z m-478 -171 c-3 -7
-12 -13 -21 -13 -24 0 -22 135 3 149 15 9 17 3 20 -56 2 -36 1 -72 -2 -80z
m564 62 c0 -62 -1 -65 -24 -65 -21 0 -24 4 -21 28 2 15 4 49 4 75 1 45 2 47
21 37 17 -9 20 -21 20 -75z m-630 -15 c0 -53 -2 -60 -20 -60 -17 0 -20 7 -20
50 0 36 5 52 18 59 9 6 18 11 20 11 1 0 2 -27 2 -60z m684 47 c13 -10 17 -24
14 -57 -2 -37 -6 -45 -23 -45 -17 0 -20 8 -23 58 -3 59 2 66 32 44z m-750 -74
c-1 -40 -34 -45 -34 -6 0 31 20 60 30 43 3 -5 5 -22 4 -37z m814 35 c20 -20
15 -58 -8 -58 -16 0 -20 7 -20 35 0 37 8 43 28 23z m-878 -48 c0 -13 -7 -20
-20 -20 -25 0 -26 16 -2 29 23 14 22 14 22 -9z m950 5 c10 -13 9 -15 -9 -15
-12 0 -21 6 -21 15 0 8 4 15 9 15 5 0 14 -7 21 -15z"/>
<path d="M6735 6969 c-33 -11 -197 -58 -365 -105 -533 -149 -875 -246 -888
-254 -9 -4 42 -31 132 -69 128 -56 145 -66 150 -89 3 -15 13 -75 22 -135 9
-59 19 -105 22 -102 3 2 -1 61 -8 130 -6 70 -10 128 -9 130 6 5 830 415 857
425 12 5 22 8 22 6 0 -2 -177 -110 -394 -240 l-394 -237 -21 -82 c-12 -45 -28
-100 -36 -122 -8 -23 -15 -44 -15 -48 0 -4 35 21 78 56 42 35 92 73 109 86
l33 22 125 -55 c69 -31 127 -56 129 -56 3 0 85 119 185 264 188 276 301 435
335 474 24 27 14 27 -69 1z"/>
<path d="M3493 5294 c-51 -46 -93 -88 -93 -92 -1 -4 54 -19 121 -34 275 -62
555 -162 819 -294 269 -135 470 -275 684 -474 90 -84 83 -72 -70 115 -250 306
-640 583 -1074 761 -109 44 -277 105 -289 103 -3 0 -48 -38 -98 -85z"/>
<path d="M6590 5363 c-228 -77 -488 -196 -680 -311 -284 -170 -555 -416 -733
-668 -41 -58 -40 -57 83 55 197 179 398 316 650 445 211 108 549 227 803 282
70 16 127 31 127 34 0 7 -196 181 -202 179 -2 0 -23 -7 -48 -16z"/>
<path d="M3247 4920 c-43 -49 -77 -91 -77 -93 0 -2 80 -7 178 -10 372 -12 826
-97 1138 -212 117 -43 372 -165 464 -221 36 -22 79 -48 95 -58 l30 -18 -30 26
c-77 68 -270 209 -365 266 -334 202 -744 337 -1165 385 -77 8 -152 17 -166 20
-22 3 -37 -9 -102 -85z"/>
<path d="M6775 4994 c-523 -60 -987 -224 -1337 -471 -88 -62 -268 -203 -268
-209 0 -2 28 15 62 37 79 50 326 176 438 222 331 136 748 221 1213 246 93 5
170 11 172 13 6 5 -137 173 -149 174 -6 1 -65 -4 -131 -12z"/>
<path d="M3050 4553 c-41 -4 -48 -8 -78 -54 -37 -56 -39 -55 73 -38 119 17
460 26 650 18 329 -15 677 -72 997 -163 147 -42 159 -47 201 -89 65 -65 138
-90 247 -85 99 5 154 28 210 89 33 35 49 42 195 84 266 76 537 126 855 156
227 21 642 13 848 -17 l43 -6 -32 50 -31 50 -76 8 c-115 10 -629 -3 -792 -20
-326 -36 -607 -92 -872 -175 -142 -44 -160 -52 -195 -89 -44 -46 -90 -62 -183
-62 -77 0 -136 24 -171 68 -29 36 -155 81 -404 142 -412 101 -761 141 -1190
138 -137 -1 -270 -3 -295 -5z"/>
<path d="M4700 3749 l0 -100 -32 22 c-77 55 -209 29 -262 -51 -125 -189 56
-427 248 -325 44 23 46 24 46 5 0 -18 7 -20 60 -20 l60 0 0 285 0 285 -60 0
-60 0 0 -101z m-38 -178 c30 -27 33 -35 33 -86 0 -51 -3 -59 -33 -86 -75 -67
-172 -15 -172 91 0 51 12 75 48 94 44 24 88 20 124 -13z"/>
<path d="M6850 3565 l0 -285 60 0 c54 0 60 2 60 20 0 20 0 20 30 -1 43 -32
124 -37 183 -11 152 67 162 318 15 393 -55 28 -149 24 -196 -10 l-32 -22 0
100 0 101 -60 0 -60 0 0 -285z m292 6 c30 -27 33 -35 33 -86 0 -51 -3 -59 -33
-86 -75 -67 -172 -15 -172 92 0 33 6 47 34 75 45 45 92 47 138 5z"/>
<path d="M3107 3816 c-95 -26 -141 -84 -134 -170 7 -81 48 -110 229 -160 36
-10 62 -24 68 -37 41 -76 -95 -105 -222 -47 l-56 26 -20 -48 -20 -49 41 -20
c144 -69 330 -48 387 44 35 56 30 122 -11 170 -25 28 -48 40 -118 61 -128 38
-151 50 -151 77 0 45 31 60 112 55 40 -3 87 -12 104 -21 l32 -16 20 48 20 49
-36 16 c-41 18 -130 36 -171 35 -14 0 -48 -6 -74 -13z"/>
<path d="M5670 3550 l0 -270 60 0 60 0 0 110 0 110 130 0 130 0 0 -110 0 -110
60 0 60 0 0 270 0 270 -60 0 -60 0 0 -105 c0 -124 8 -119 -152 -113 l-103 3
-3 108 -3 107 -59 0 -60 0 0 -270z"/>
<path d="M3513 3750 c-2 -57 -9 -70 -38 -70 -22 0 -25 -4 -25 -39 0 -37 2 -40
33 -43 l32 -3 5 -127 c5 -127 5 -128 37 -159 26 -26 42 -33 85 -37 35 -3 67 1
90 11 l37 16 -16 39 c-15 39 -16 40 -55 34 -28 -3 -43 -1 -49 9 -5 8 -9 60 -9
117 l0 102 54 0 53 0 -1 43 -2 42 -52 3 -52 3 0 50 0 49 -62 0 -63 0 -2 -40z"/>
<path d="M3850 3542 c0 -134 3 -162 19 -192 28 -52 62 -73 128 -78 48 -3 66 1
106 22 45 24 47 25 47 6 0 -18 7 -20 60 -20 l60 0 0 210 0 210 -59 0 -59 0 -4
-135 c-3 -132 -4 -135 -30 -162 -37 -37 -101 -39 -129 -4 -17 20 -19 41 -19
162 l0 139 -60 0 -60 0 0 -158z"/>
<path d="M4890 3693 c0 -5 38 -98 85 -207 47 -108 85 -205 85 -215 0 -30 -35
-54 -72 -49 -18 3 -40 8 -49 12 -11 5 -20 -3 -32 -29 -23 -49 -22 -54 18 -71
76 -31 169 -8 211 53 18 27 214 491 214 507 0 3 -26 6 -57 6 l-58 0 -54 -145
c-47 -125 -70 -165 -71 -122 -1 7 -23 68 -50 137 l-48 125 -61 3 c-34 2 -61
-1 -61 -5z"/>
<path d="M6304 3685 c-4 -8 -4 -77 -2 -153 4 -154 17 -196 72 -235 45 -32 151
-32 195 1 37 27 41 27 41 2 0 -18 7 -20 60 -20 l60 0 -2 208 -3 207 -60 0 -60
0 -5 -135 c-3 -74 -9 -141 -13 -148 -29 -44 -115 -50 -141 -9 -13 21 -26 138
-26 245 l0 52 -55 0 c-41 0 -57 -4 -61 -15z"/>
<path d="M4310 2925 l0 -125 73 0 c86 0 130 22 153 75 18 45 18 63 -4 104 -27
50 -73 71 -154 71 l-68 0 0 -125z m161 69 c32 -29 41 -62 28 -101 -14 -42 -56
-65 -112 -61 l-42 3 -3 79 c-2 44 0 86 3 94 8 21 99 11 126 -14z"/>
<path d="M4710 2970 c0 -130 26 -170 113 -170 62 0 93 33 103 106 8 70 -2 144
-22 144 -11 0 -14 -18 -14 -84 0 -98 -20 -136 -71 -136 -54 0 -69 28 -69 130
0 83 -1 90 -20 90 -18 0 -20 -7 -20 -80z"/>
<path d="M5110 2926 l0 -126 76 0 c72 0 111 10 126 34 14 21 8 65 -11 78 -17
12 -17 16 -5 33 20 27 17 59 -7 81 -16 14 -40 20 -100 23 l-79 3 0 -126z m127
88 c12 -3 25 -15 28 -26 11 -31 -13 -48 -66 -48 l-49 0 0 40 c0 38 1 40 33 40
17 0 42 -3 54 -6z m31 -116 c18 -18 14 -46 -7 -58 -23 -12 -108 -14 -114 -2
-3 4 -2 22 0 40 5 31 6 32 57 32 29 0 57 -5 64 -12z"/>
<path d="M5561 3028 c-5 -13 -29 -69 -54 -125 -42 -94 -44 -103 -26 -103 13 0
24 10 31 30 10 31 11 31 77 28 61 -3 67 -5 79 -30 8 -17 21 -28 33 -28 12 0
19 4 17 9 -1 4 -27 61 -57 125 -41 87 -59 116 -73 116 -10 0 -22 -10 -27 -22z
m57 -80 c12 -28 20 -53 18 -55 -2 -2 -24 -3 -49 -1 l-45 3 22 52 c11 29 23 53
26 53 3 0 15 -24 28 -52z"/>
<path d="M5880 2925 c0 -104 2 -125 15 -125 13 0 15 21 15 125 0 104 -2 125
-15 125 -13 0 -15 -21 -15 -125z"/>
</g>
</svg>
